<svg xmlns="http://www.w3.org/2000/svg" width="26.667" height="24" viewBox="0 0 26.667 24">
  <g id="camera-2" transform="translate(-2 -3)">
    <path id="Path_64" data-name="Path 64" d="M12.37,26H18.3c4.161,0,6.242,0,7.737-.963a5.828,5.828,0,0,0,1.635-1.577c1-1.441,1-3.448,1-7.461s0-6.019-1-7.46a5.823,5.823,0,0,0-1.635-1.577C24.538,6,22.457,6,18.3,6H12.37c-4.161,0-6.242,0-7.737.963A5.825,5.825,0,0,0,3,8.54C2,9.981,2,11.986,2,16v0c0,4.013,0,6.019,1,7.461a5.826,5.826,0,0,0,1.635,1.577C6.128,26,8.209,26,12.37,26Z" transform="translate(0 1)" fill="#1c274c" opacity="0.5"/>
    <path id="Path_65" data-name="Path 65" d="M8,4.333A1.285,1.285,0,0,1,9.231,3h8.205a1.285,1.285,0,0,1,1.231,1.333,1.285,1.285,0,0,1-1.231,1.333H9.231A1.285,1.285,0,0,1,8,4.333Z" transform="translate(2)" fill="#1c274c" fill-rule="evenodd"/>
    <path id="Path_66" data-name="Path 66" d="M17.278,10.554a1.092,1.092,0,0,1,1.111-1.071h.741a1.072,1.072,0,1,1,0,2.143h-.741A1.092,1.092,0,0,1,17.278,10.554Z" transform="translate(5.093 2.161)" fill="#fff" fill-rule="evenodd"/>
    <path id="Path_67" data-name="Path 67" d="M7.833,14.84a5.459,5.459,0,0,1,5.556-5.357,5.459,5.459,0,0,1,5.555,5.357A5.459,5.459,0,0,1,13.389,20.2,5.459,5.459,0,0,1,7.833,14.84Zm2.222,0a3.336,3.336,0,1,1,3.333,3.214A3.275,3.275,0,0,1,10.056,14.84Z" transform="translate(1.944 2.161)" fill="#1c274c" fill-rule="evenodd"/>
    <path id="Path_68" data-name="Path 68" d="M18.389,9.482a1.072,1.072,0,1,0,0,2.143h.741a1.072,1.072,0,1,0,0-2.143Z" transform="translate(5.093 2.161)" fill="#1c274c" fill-rule="evenodd"/>
  </g>
</svg>
