<svg xmlns="http://www.w3.org/2000/svg" width="22.545" height="24" viewBox="0 0 22.545 24">
  <g id="contacts" transform="translate(-15.515)">
    <g id="Group_18" data-name="Group 18" transform="translate(15.515 5.818)">
      <path id="Path_22" data-name="Path 22" d="M16.606,126.3h2.182a1.091,1.091,0,0,0,0-2.182H16.606a1.091,1.091,0,0,0,0,2.182Z" transform="translate(-15.515 -124.121)" fill="#2e36d2"/>
      <path id="Path_23" data-name="Path 23" d="M18.788,232.727H16.606a1.091,1.091,0,1,0,0,2.182h2.182a1.091,1.091,0,1,0,0-2.182Z" transform="translate(-15.515 -227.636)" fill="#2e36d2"/>
      <path id="Path_24" data-name="Path 24" d="M18.788,341.333H16.606a1.091,1.091,0,0,0,0,2.182h2.182a1.091,1.091,0,1,0,0-2.182Z" transform="translate(-15.515 -331.151)" fill="#2e36d2"/>
    </g>
    <g id="Group_19" data-name="Group 19" transform="translate(22.788 6.182)">
      <circle id="Ellipse_11" data-name="Ellipse 11" cx="3.273" cy="3.273" r="3.273" transform="translate(1.818)" fill="#c9ddf4"/>
      <path id="Path_25" data-name="Path 25" d="M175.758,271.514a5.091,5.091,0,0,0-5.091,5.091h10.182A5.091,5.091,0,0,0,175.758,271.514Z" transform="translate(-170.667 -264.969)" fill="#c9ddf4"/>
    </g>
    <path id="Path_26" data-name="Path 26" d="M81.334,0H66.788a4.733,4.733,0,0,0-4.727,4.727V5.818h1.091a1.091,1.091,0,1,1,0,2.182H62.061v2.909h1.091a1.091,1.091,0,1,1,0,2.182H62.061V16h1.091a1.091,1.091,0,1,1,0,2.182H62.061v1.091A4.733,4.733,0,0,0,66.788,24H81.334a1.091,1.091,0,0,0,1.091-1.091V1.091A1.091,1.091,0,0,0,81.334,0ZM72.243,17.818H67.152a5.091,5.091,0,0,1,5.091-5.091,3.273,3.273,0,1,1,3.273-3.273,3.273,3.273,0,0,1-3.273,3.273,5.091,5.091,0,0,1,5.091,5.091H72.243Z" transform="translate(-44.364)" fill="#5286fa"/>
    <path id="Path_27" data-name="Path 27" d="M67.152,17.818a5.091,5.091,0,0,1,5.091-5.091,3.273,3.273,0,0,1,0-6.545V0H66.788a4.733,4.733,0,0,0-4.727,4.727V5.818h1.091a1.091,1.091,0,1,1,0,2.182H62.061v2.909h1.091a1.091,1.091,0,1,1,0,2.182H62.061V16h1.091a1.091,1.091,0,1,1,0,2.182H62.061v1.091A4.733,4.733,0,0,0,66.788,24h5.455V17.818Z" transform="translate(-44.364)" fill="#3d6deb"/>
  </g>
</svg>
