<svg xmlns="http://www.w3.org/2000/svg" width="23.658" height="24" viewBox="0 0 23.658 24">
  <g id="google" transform="translate(-1.1 -1)">
    <path id="Path_43" data-name="Path 43" d="M19.73,9.177a14.154,14.154,0,0,0-.207-2.438H8.139v4.62h6.518a5.554,5.554,0,0,1-2.412,3.646v3h3.89A11.691,11.691,0,0,0,19.73,9.177Z" transform="translate(5.028 4.099)" fill="#4285f4"/>
    <path id="Path_44" data-name="Path 44" d="M12.633,19.042a11.585,11.585,0,0,0,8-2.9l-3.888-3a7.337,7.337,0,0,1-10.881-3.8H1.85v3.091a12.076,12.076,0,0,0,10.783,6.609Z" transform="translate(0.536 5.959)" fill="#34a853"/>
    <path id="Path_45" data-name="Path 45" d="M6.392,12.544a7.149,7.149,0,0,1,0-4.594V4.859H2.384a11.949,11.949,0,0,0,0,10.776l4.008-3.091Z" transform="translate(0 2.756)" fill="#fbbc04"/>
    <path id="Path_46" data-name="Path 46" d="M12.633,5.748a6.578,6.578,0,0,1,4.629,1.8l3.446-3.427A11.634,11.634,0,0,0,12.633,1,12.072,12.072,0,0,0,1.85,7.615l4,3.088A7.214,7.214,0,0,1,12.63,5.748Z" transform="translate(0.536 0)" fill="#ea4335"/>
  </g>
</svg>
