<svg xmlns="http://www.w3.org/2000/svg" width="24.01" height="24" viewBox="0 0 24.01 24">
  <g id="location" transform="translate(0 -0.11)">
    <circle id="Ellipse_12" data-name="Ellipse 12" cx="12" cy="12" r="12" transform="translate(0 0.11)" fill="#71b84f"/>
    <path id="Path_47" data-name="Path 47" d="M3.173,138.814c3.4-.674,7.472.059,11.634,4.39a14.948,14.948,0,0,1,10.435-6.382,12.122,12.122,0,0,1,.713,1.645,13.84,13.84,0,0,0-3.141.684l3.716,1.744a12.7,12.7,0,0,1,.1,1.516c0,.139,0,.277-.01.406l-5.807-2.735.03-.059a15.617,15.617,0,0,0-6.352,6.986,22.952,22.952,0,0,1-4.509,6.461,12.253,12.253,0,0,1-1.605-.822,20.356,20.356,0,0,0,4.588-6.411c.277-.565.575-1.09.882-1.6-4-4.311-7.937-4.776-11.1-3.934a11.165,11.165,0,0,1,.436-1.913Z" transform="translate(-2.618 -130.301)" fill="#ffd630"/>
    <path id="Path_48" data-name="Path 48" d="M197.877,79.777h.129a3.554,3.554,0,0,1,.307-.654l.981-2.012c.446-.9.872-1.784,1.318-2.676a3.062,3.062,0,0,0-2.477-4.6,2.959,2.959,0,0,0-1.863.476,3.088,3.088,0,0,0-1,4.132c.079.149,2.557,5.133,2.606,5.341v-.01Z" transform="translate(-185.708 -66.458)" fill="#006775"/>
    <path id="Path_49" data-name="Path 49" d="M260.121,79.777h.1a3.555,3.555,0,0,1,.307-.654l.981-2.012c.446-.9.872-1.784,1.318-2.676a3.062,3.062,0,0,0-2.477-4.6h-.228C260.121,73.653,260.121,73.217,260.121,79.777Z" transform="translate(-247.923 -66.458)" fill="#004f59"/>
    <circle id="Ellipse_13" data-name="Ellipse 13" cx="1.843" cy="1.843" r="1.843" transform="translate(10.385 4.43)" fill="#e6e6e6"/>
    <path id="Path_50" data-name="Path 50" d="M260.121,92.236v3.7h.03a1.843,1.843,0,0,0,0-3.686h-.03Z" transform="translate(-247.923 -87.806)" fill="#ccc"/>
    <path id="Path_51" data-name="Path 51" d="M247.059,117.17a.674.674,0,1,1-.674.674A.668.668,0,0,1,247.059,117.17Z" transform="translate(-234.831 -111.57)" fill="#ff873d"/>
    <path id="Path_52" data-name="Path 52" d="M260.121,117.17v1.348h.03a.674.674,0,1,0,0-1.348Z" transform="translate(-247.923 -111.57)" fill="#e37936"/>
  </g>
</svg>
