<svg xmlns="http://www.w3.org/2000/svg" width="23.874" height="24" viewBox="0 0 23.874 24">
  <g id="logo" transform="translate(-129.767 -394)">
    <path id="Path_1" data-name="Path 1" d="M285.06,92.27h0a4.876,4.876,0,0,0,0,6.9l6.085,6.085a4.875,4.875,0,0,0,6.895,0Z" transform="translate(-153.865 311.258)" fill="#3a8ea5" fill-rule="evenodd"/>
    <path id="Path_2" data-name="Path 2" d="M352.565,79.55l.023-.024a4.876,4.876,0,0,1,6.895,0l4.622,4.623-3.47,3.47Z" transform="translate(-210.468 322.895)" fill="#3a8ea5" fill-rule="evenodd"/>
    <path id="Path_3" data-name="Path 3" d="M294.676,45.9a4.875,4.875,0,0,0,0-6.895h0l-9.532,9.532a4.875,4.875,0,0,0,0,6.895h0Z" transform="translate(-153.934 354.999)" fill="#101f28" fill-rule="evenodd"/>
    <path id="Path_4" data-name="Path 4" d="M334.8,105.345a4.875,4.875,0,0,1,6.895,0l-9.532,9.532a4.875,4.875,0,0,1-6.895,0Z" transform="translate(-188.049 301.695)" fill="#101f28" fill-rule="evenodd"/>
    <path id="Path_5" data-name="Path 5" d="M316.337,78.695a4.875,4.875,0,0,1,6.895,0l-7.747,7.747a4.875,4.875,0,0,1-6.895,0Z" transform="translate(-174.359 323.578)" fill="#101f28" fill-rule="evenodd"/>
  </g>
</svg>
