<svg xmlns="http://www.w3.org/2000/svg" width="24" height="24" viewBox="0 0 24 24">
  <g id="otp" transform="translate(0 0)">
    <circle id="Ellipse_14" data-name="Ellipse 14" cx="12" cy="12" r="12" transform="translate(0 0)" fill="#d7daba"/>
    <path id="Path_53" data-name="Path 53" d="M129.226,93.791a.809.809,0,0,0-.809.809v12.952a.809.809,0,0,0,.809.809h9.309a.809.809,0,0,0,.809-.809V97.54l-3.9-3.749Z" transform="translate(-121.914 -89.041)" fill="#cb7429"/>
    <g id="Group_20" data-name="Group 20" transform="translate(4.681 4.75)">
      <path id="Path_54" data-name="Path 54" d="M271.056,97.54h-3.092a.809.809,0,0,1-.809-.809V93.791Z" transform="translate(-258.306 -93.791)" fill="#b56027"/>
      <path id="Path_55" data-name="Path 55" d="M101.123,200.766a.934.934,0,0,1-.934.934H93.371a.934.934,0,0,1-.934-.934v-2.854a.934.934,0,0,1,.934-.934h6.819a.934.934,0,0,1,.934.934Z" transform="translate(-92.437 -191.753)" fill="#b56027"/>
    </g>
    <g id="Group_21" data-name="Group 21" transform="translate(6.382 11.451)">
      <path id="Path_56" data-name="Path 56" d="M126.958,226.133a1.014,1.014,0,0,1,.507.12.774.774,0,0,1,.321.341,1.163,1.163,0,0,1,.109.519,1.266,1.266,0,0,1-.06.4.867.867,0,0,1-.179.312.784.784,0,0,1-.293.2,1.058,1.058,0,0,1-.4.07,1.046,1.046,0,0,1-.4-.072.791.791,0,0,1-.294-.2.866.866,0,0,1-.178-.315,1.275,1.275,0,0,1-.06-.4,1.227,1.227,0,0,1,.063-.4.866.866,0,0,1,.182-.311.788.788,0,0,1,.29-.2A1.037,1.037,0,0,1,126.958,226.133Zm.547.977a.891.891,0,0,0-.067-.361.5.5,0,0,0-.193-.231.528.528,0,0,0-.287-.078.519.519,0,0,0-.213.043.469.469,0,0,0-.168.126.609.609,0,0,0-.111.212.961.961,0,0,0-.041.29.985.985,0,0,0,.041.293.6.6,0,0,0,.115.217.484.484,0,0,0,.171.129.539.539,0,0,0,.483-.031.51.51,0,0,0,.2-.228A.879.879,0,0,0,127.5,227.11Z" transform="translate(-126.035 -226.133)" fill="#fff"/>
      <path id="Path_57" data-name="Path 57" d="M165.047,227.088h-.42v1.379a.255.255,0,0,1-.053.177.178.178,0,0,1-.137.058.18.18,0,0,1-.139-.058.252.252,0,0,1-.054-.176v-1.379h-.42a.212.212,0,0,1-.146-.043.148.148,0,0,1-.048-.115.145.145,0,0,1,.05-.117.217.217,0,0,1,.145-.043h1.223a.215.215,0,0,1,.148.044.148.148,0,0,1,.049.115.146.146,0,0,1-.049.115A.217.217,0,0,1,165.047,227.088Z" transform="translate(-161.726 -226.738)" fill="#fff"/>
      <path id="Path_58" data-name="Path 58" d="M200.741,227.932h-.352v.538a.251.251,0,0,1-.054.175.192.192,0,0,1-.277,0,.251.251,0,0,1-.053-.173v-1.464a.239.239,0,0,1,.058-.181.266.266,0,0,1,.185-.054h.493a1.289,1.289,0,0,1,.337.034.5.5,0,0,1,.2.107.486.486,0,0,1,.129.184.643.643,0,0,1,.044.245.541.541,0,0,1-.179.44A.813.813,0,0,1,200.741,227.932Zm-.093-.87h-.259v.58h.259a.774.774,0,0,0,.227-.028.264.264,0,0,0,.139-.093.278.278,0,0,0,.048-.17.287.287,0,0,0-.074-.2A.49.49,0,0,0,200.648,227.062Z" transform="translate(-196.258 -226.741)" fill="#fff"/>
    </g>
  </g>
</svg>
