<svg xmlns="http://www.w3.org/2000/svg" width="41.331" height="24" viewBox="0 0 41.331 24">
  <g id="Group_16" data-name="Group 16" transform="translate(-4617.002 -1494.002)">
    <path id="path14" d="M441.129-1782.977l-3.428-.847a.544.544,0,0,0-.648.361l-3.693,11.42a.545.545,0,0,0,.034.416.545.545,0,0,0,.318.27l3.25,1.043a.544.544,0,0,0,.683-.346l3.872-11.616a.544.544,0,0,0-.039-.435.544.544,0,0,0-.346-.266" transform="translate(4183.668 3279.499)" fill="#2c394d"/>
    <path id="path18" d="M1884.755-1806.15l-3.673-11.357a.578.578,0,0,0-.688-.383l-3.362.833a.578.578,0,0,0-.367.282.578.578,0,0,0-.042.462l3.85,11.549a.578.578,0,0,0,.725.368l3.185-1.022a.578.578,0,0,0,.338-.287.577.577,0,0,0,.036-.441" transform="translate(2773.55 3312.787)" fill="#397bc8"/>
    <path id="path20" d="M922.7-1123.174a7.726,7.726,0,0,0-2.727-1.119.257.257,0,0,0-.226.071l-.334.332a1.559,1.559,0,0,0-.357.547s0,.007,0,.01a1.568,1.568,0,0,0-.06.9h0a1.57,1.57,0,0,0,.259.567,1.576,1.576,0,0,0,.155.178,1.537,1.537,0,0,0,.424.3,1.532,1.532,0,0,0,.4.131h0a1.556,1.556,0,0,0,1.131-.232,1.545,1.545,0,0,0,.244-.2l.5-.5.024-.024.6-.565a.257.257,0,0,0,.08-.211.257.257,0,0,0-.118-.192" transform="translate(3709.194 2635.103)" fill="#397bc8"/>
    <path id="path22" d="M800.708-1156.823a8.373,8.373,0,0,1-1.679-.357l-1.163-.379a.078.078,0,0,0-.073.014.078.078,0,0,0-.028.068,1.591,1.591,0,0,0,.032.2h0a1.629,1.629,0,0,0,.435.785,1.621,1.621,0,0,0,.867.455h0a1.63,1.63,0,0,0,1.444-.451l.209-.208a.076.076,0,0,0,.019-.08.076.076,0,0,0-.065-.05" transform="translate(3827.603 2667.604)" fill="#397bc8"/>
    <path id="path24" d="M1078.845-1050.637a.179.179,0,0,0-.23.04l-.19.234a1.53,1.53,0,0,0-.29.567v.01a1.306,1.306,0,0,0-.033.168,1.524,1.524,0,0,0,.07.7h0a1.527,1.527,0,0,0,.308.52,1.487,1.487,0,0,0,.17.158,1.453,1.453,0,0,0,.44.25,1.466,1.466,0,0,0,.4.085h0a1.514,1.514,0,0,0,.793-.16,1.467,1.467,0,0,0,.277-.178,1.4,1.4,0,0,0,.215-.217l.238-.292a.179.179,0,0,0-.02-.245,17.463,17.463,0,0,0-2.149-1.644" transform="translate(3553.719 2563.156)" fill="#397bc8"/>
    <path id="path26" d="M1216.725-949.918a.09.09,0,0,0-.072-.026.089.089,0,0,0-.065.039c-.042.063-.093.142-.114.182l0,.01a1.292,1.292,0,0,0-.065.159,1.526,1.526,0,0,0-.07.7h0a1.22,1.22,0,0,0,.026.139,1.524,1.524,0,0,0,.174.433,1.533,1.533,0,0,0,.135.189,1.447,1.447,0,0,0,.382.331,1.467,1.467,0,0,0,.376.163h0c.031.008.064.016.1.022h0a.839.839,0,0,0,.1.017,1.477,1.477,0,0,0,.608-.04,1.47,1.47,0,0,0,.306-.119,1.249,1.249,0,0,0,.115-.068.12.12,0,0,0,.05-.085.119.119,0,0,0-.031-.094l-1.952-1.952" transform="translate(3418.657 2464.753)" fill="#397bc8"/>
    <path id="path28" d="M723-1831.423h0a1.089,1.089,0,0,0-.25-.343l-.745-.691-7.081-7.872-.037.023h0l-2.684,1.632a5.58,5.58,0,0,1-4.253.659,5.587,5.587,0,0,1-3.473-2.541,1.208,1.208,0,0,1-.141-.923,1.208,1.208,0,0,1,.549-.747l4.969-3.023a4.642,4.642,0,0,0-3.8.066l-3.833,1.785-1.314.224a3.581,3.581,0,0,0-2.8,2.416l-2.336,7.141a2.126,2.126,0,0,0,1.25,2.643l.641.249,1.159.43a18.746,18.746,0,0,0,2.17.45l1.767.263a25.6,25.6,0,0,1,9.034,7.379h0s.5.578.964.229l.009-.007a1.78,1.78,0,0,0,.167-.163,1.935,1.935,0,0,0,.2-.245,1.988,1.988,0,0,0,.258-.553,1.405,1.405,0,0,0,.046-.189l.007-.037a2.035,2.035,0,0,0-.012-.738,1.8,1.8,0,0,0,.2.134,1.955,1.955,0,0,0,.4.183,2,2,0,0,0,1.068.059l.11-.025.005-.005a1.893,1.893,0,0,0,.395-.159,1.913,1.913,0,0,0,.526-.407,2.092,2.092,0,0,0,.2-.246,2,2,0,0,0,.3-.739l.007-.038h0a2.017,2.017,0,0,0-.068-.952h0l.459.422a2,2,0,0,0,.33.246,2.04,2.04,0,0,0,1.5.246l.109-.026.005,0a1.937,1.937,0,0,0,.406-.164,2.033,2.033,0,0,0,.542-.417,2.179,2.179,0,0,0,.2-.249,2.067,2.067,0,0,0,.31-.756l.007-.038v-.456a1.771,1.771,0,0,0-.149-.728,2.087,2.087,0,0,0-.133-.249,2.131,2.131,0,0,0,1.819.438l.109-.025,0,0a2.12,2.12,0,0,0,.994-.609,2.119,2.119,0,0,0,.526-1.045l.008-.038h0a2.293,2.293,0,0,0,.029-.41,2.135,2.135,0,0,0-.164-.774,2.134,2.134,0,0,0-.461-.68" transform="translate(3927.373 3339.863)" fill="#2c394d"/>
    <path id="path30" d="M1131.637-1853.991l-.7-.119-3.616-1.686h0a3.173,3.173,0,0,0-2.419,0h-.005l-.6.364-6.465,3.932a.162.162,0,0,0-.074.1.163.163,0,0,0,.019.124,4.57,4.57,0,0,0,6.279,1.531l3.313-2.016a.218.218,0,0,1,.275.04l.584.648" transform="translate(3514.973 3350.038)" fill="#397bc8"/>
    <path id="path32" d="M1573.89-1763.987l6.962,7.736.677.622a2.145,2.145,0,0,1,.524.744,2.174,2.174,0,0,1,.142.515l.4-.148a1.169,1.169,0,0,0,.7-1.46l-2.626-8.026a4.3,4.3,0,0,0-3.366-2.9" transform="translate(3069.302 3262.952)" fill="#397bc8"/>
  </g>
</svg>
