<svg xmlns="http://www.w3.org/2000/svg" width="23.133" height="24" viewBox="0 0 23.133 24">
  <g id="storage" transform="translate(-2 -2)">
    <path id="Path_59" data-name="Path 59" d="M2,11H25.133v1.157c0,4.362,0,6.543-1.355,7.9a3.585,3.585,0,0,1-1.247.806v2.863a.867.867,0,0,1-1.735,0V21.261a45.444,45.444,0,0,1-4.916.149H11.253a45.444,45.444,0,0,1-4.916-.149v2.462a.867.867,0,0,1-1.735,0V20.86a3.585,3.585,0,0,1-1.247-.806C2,18.7,2,16.518,2,12.157Zm7.229,5.2a.867.867,0,0,1,.867-.867h6.94a.867.867,0,0,1,0,1.735H10.1A.867.867,0,0,1,9.229,16.2Z" transform="translate(0 1.41)" fill="#1c274c" fill-rule="evenodd"/>
    <path id="Path_60" data-name="Path 60" d="M3.355,3.355C2,4.71,2,6.891,2,11.253V12.41H25.133V11.253c0-4.362,0-6.543-1.355-7.9S20.241,2,15.88,2H11.253C6.891,2,4.71,2,3.355,3.355Z" transform="translate(0 0)" fill="#1c274c" opacity="0.5"/>
    <path id="Path_61" data-name="Path 61" d="M9.117,5.75a.867.867,0,1,0,0,1.735h6.94a.867.867,0,0,0,0-1.735Z" transform="translate(0.979 0.587)" fill="#1c274c"/>
  </g>
</svg>
