<svg xmlns="http://www.w3.org/2000/svg" width="21.176" height="24" viewBox="0 0 21.176 24">
  <path id="user" d="M123.714,14.074a24.88,24.88,0,0,1,7.2,1.1,2.593,2.593,0,0,1,1.852,2.485V19.6a15.763,15.763,0,0,1-18.353,0V17.659a2.6,2.6,0,0,1,1.859-2.486,25.6,25.6,0,0,1,7.443-1.1Zm-.027-12.707a4.842,4.842,0,0,1,4.734,3.841,2.762,2.762,0,0,1-1.529.394,3,3,0,0,1-1.869-.6,4.6,4.6,0,0,0-5.229,0,3.425,3.425,0,0,1-1.1.518,4.852,4.852,0,0,1,4.794-4.159h.2Zm7.639,12.457a26.506,26.506,0,0,0-4.056-.9,6.241,6.241,0,0,0,2.671-5.111h-1.412a4.847,4.847,0,0,1-4.842,4.842h-.2a4.847,4.847,0,0,1-4.842-4.842v-.85a4.4,4.4,0,0,0,1.9-.768,2.991,2.991,0,0,1,1.869-.6,2.959,2.959,0,0,1,1.852.6,4.347,4.347,0,0,0,2.623.816,4.413,4.413,0,0,0,2.68-.857l.374-.237-.051-.442a6.255,6.255,0,0,0-6.208-5.523h-.2a6.283,6.283,0,0,0-6.254,6.353V7.819a6.243,6.243,0,0,0,2.677,5.116,26.063,26.063,0,0,0-4.056.888A4,4,0,0,0,113,17.659v2.65l.282.212a17.178,17.178,0,0,0,20.612,0l.282-.212v-2.65a4,4,0,0,0-2.85-3.834Z" transform="translate(-113 0.045)" fill-rule="evenodd"/>
</svg>
